<?xml version="1.0" encoding="UTF-8"?>
<svg version="1.1" xmlns="http://www.w3.org/2000/svg" width="309" height="309">
<path d="M0 0 C0.75158386 0.00143005 1.50316772 0.00286011 2.27752686 0.0043335 C28.8048939 0.12819179 52.77256597 6.95768757 76 19.5 C77.05960938 20.06589844 78.11921875 20.63179687 79.2109375 21.21484375 C113.41949748 40.29442117 138.64541977 73.55300533 149.75 110.90625 C150.17486657 112.43524512 150.59143006 113.96656977 151 115.5 C151.20882813 116.27730469 151.41765625 117.05460937 151.6328125 117.85546875 C161.52078815 156.71896797 154.28850062 198.30401601 135.0625 232.99609375 C125.8839126 248.41093913 114.06969255 263.27528205 100 274.5 C99.154375 275.18320312 98.30875 275.86640625 97.4375 276.5703125 C84.48473063 286.6720647 70.28630946 294.53708889 55 300.5 C53.2365625 301.19222656 53.2365625 301.19222656 51.4375 301.8984375 C14.99604057 315.0844919 -28.12551528 312.93547183 -63.171875 296.5859375 C-67.17144158 294.66117539 -71.09485636 292.60869317 -75 290.5 C-76.05960937 289.93410156 -77.11921875 289.36820312 -78.2109375 288.78515625 C-111.57210183 270.17820764 -136.87157384 236.8753563 -148 200.5 C-149.00923776 196.89139616 -149.93094432 193.26676797 -150.8125 189.625 C-151.12320435 188.341698 -151.12320435 188.341698 -151.44018555 187.0324707 C-160.40913694 147.94779882 -151.55010525 105.72878826 -130.6862793 71.95361328 C-126.29259218 65.04856601 -121.35477127 58.68667324 -116 52.5 C-115.319375 51.69691406 -114.63875 50.89382812 -113.9375 50.06640625 C-109.63029153 45.07778394 -105.11192942 40.6556161 -100 36.5 C-99.07703125 35.73945312 -98.1540625 34.97890625 -97.203125 34.1953125 C-81.33118673 21.39063514 -63.50780018 12.2551386 -44.0625 6.25 C-43.31315186 6.01571289 -42.56380371 5.78142578 -41.79174805 5.54003906 C-28.02656055 1.4998935 -14.2909514 -0.08893211 0 0 Z " fill="#232323" transform="translate(154,-0.5)"/>
<path d="M0 0 C4.12779444 1.97008371 5.34618196 4.46260664 6.8359375 8.5859375 C9.28005845 15.54840681 11.22743328 22.64188411 13.17462158 29.75469971 C14.44526761 34.39513222 15.7310802 39.031368 17.015625 43.66796875 C17.45529099 45.25665771 17.45529099 45.25665771 17.90383911 46.87744141 C20.77065161 57.2159859 23.68826755 67.53997258 26.609375 77.86328125 C27.10700209 79.62272145 27.60461149 81.38216666 28.10220337 83.14161682 C30.10986261 90.2395596 32.11780558 97.33741971 34.13031006 104.43399048 C35.33380192 108.6779612 36.53490448 112.92260165 37.73441315 117.16769981 C38.18190792 118.7496282 38.63030481 120.33130173 39.07967377 121.91269875 C39.70339641 124.10797817 40.32455733 126.30395465 40.94384766 128.50048828 C41.13327187 129.17103965 41.32269608 129.84159101 41.51786041 130.53246212 C42.52875577 134.15656728 43.41269567 137.77769329 44.16162109 141.46435547 C44.43828613 142.63111816 44.71495117 143.79788086 45 145 C45.66 145.33 46.32 145.66 47 146 C47.09796875 145.45214844 47.1959375 144.90429688 47.296875 144.33984375 C49.0307831 135.14714132 51.08177847 125.78235158 54.5234375 117.06640625 C55.84228888 113.64657952 56.61055634 110.30437551 57.27807617 106.70776367 C58.83483037 98.55081727 60.90460487 92.0235843 68 87 C75.12228215 82.45670178 82.4883535 82.37864275 90.70385742 82.47851562 C92.82649613 82.5001426 94.94581751 82.47854174 97.06835938 82.453125 C98.42709075 82.45576543 99.78582008 82.46088451 101.14453125 82.46875 C102.97528198 82.47551758 102.97528198 82.47551758 104.84301758 82.48242188 C108.58349314 83.09566201 109.78305058 83.96959364 112 87 C112.47647608 90.81180865 112.52641491 93.06680993 110.625 96.4375 C109 98 109 98 107 98 C107 98.66 107 99.32 107 100 C97.1 100.33 87.2 100.66 77 101 C76.34 103.97 75.68 106.94 75 110 C74.41299916 112.27197947 73.80834681 114.53948932 73.18408203 116.80151367 C72.66311447 118.69343697 72.66311447 118.69343697 72.13162231 120.62358093 C71.75739156 121.97181366 71.38277909 123.31994049 71.0078125 124.66796875 C70.81605312 125.35831018 70.62429375 126.04865162 70.42672348 126.75991249 C69.41359723 130.40514873 68.39722052 134.04946164 67.37841797 137.69311523 C66.3316921 141.43953347 65.2973577 145.1892591 64.26562691 148.93982983 C63.46459591 151.84242836 62.65402545 154.7423014 61.84090805 157.64153481 C61.45536882 159.02272521 61.07344082 160.40492926 60.69531631 161.78816795 C60.16528588 163.72381626 59.62026909 165.65534171 59.07470703 167.58666992 C58.76985382 168.68315353 58.46500061 169.77963715 58.15090942 170.90934753 C56.36211754 175.71296974 54.28561373 179.14292418 50 182 C46.58843736 182.59232473 43.40781775 182.63128427 40 182 C36.12725372 178.12725372 35.42866899 174.35836235 35 169 C34.34 169 33.68 169 33 169 C30.44358753 159.93288203 27.88768281 150.86562113 25.33240795 141.79818249 C24.14559681 137.58682149 22.95861754 133.37550804 21.77124023 129.16430664 C20.62317601 125.09251009 19.47557145 121.02058423 18.32827187 116.94857216 C17.89271378 115.40298255 17.45699621 113.85743787 17.02110863 112.31194115 C16.40580793 110.13020236 15.790969 107.94833444 15.17651367 105.76635742 C14.98508883 105.08660953 14.793664 104.40686163 14.59643841 103.70651531 C13.25033688 98.91610989 11.93647155 94.11771176 10.65083313 89.31074524 C9.95768291 86.84975561 9.17674968 84.42756752 8.375 82 C6.75650391 76.72929544 6.30247859 71.48633584 6 66 C5.34 66 4.68 66 4 66 C3.81824219 65.32195312 3.63648438 64.64390625 3.44921875 63.9453125 C2.17888533 59.24182159 0.87145896 54.57431128 -0.625 49.9375 C-2.13801939 45.00236344 -2.68295347 40.13834028 -3 35 C-3.66 35 -4.32 35 -5 35 C-5.13390137 35.99157104 -5.13390137 35.99157104 -5.27050781 37.00317383 C-6.56515437 45.65582575 -8.70487677 53.96345334 -11.09375 62.36450195 C-11.75069836 64.68997204 -12.38331057 67.02124441 -13.015625 69.35351562 C-16.0644982 80.30503954 -19.85588684 90.65992928 -30 97 C-36.7868412 99.64880787 -43.30424886 99.36789659 -50.5 99.375 C-51.80582031 99.39949219 -53.11164063 99.42398438 -54.45703125 99.44921875 C-55.71902344 99.45308594 -56.98101562 99.45695312 -58.28125 99.4609375 C-59.42658203 99.46915527 -60.57191406 99.47737305 -61.75195312 99.48583984 C-65.74436122 98.88865914 -67.91537047 97.57071601 -71 95 C-71.82948704 90.85256481 -71.56733871 88.89883223 -69.30859375 85.3203125 C-64.90450646 81.17107863 -58.0115772 82.29776 -52.375 82.3125 C-49.92441023 82.29594196 -47.47385704 82.27157499 -45.0234375 82.23828125 C-43.93981934 82.23868408 -42.85620117 82.23908691 -41.73974609 82.23950195 C-38.78274115 82.20192372 -38.78274115 82.20192372 -36 80 C-33.2157895 74.77960531 -32.13583501 69.40003823 -30.87890625 63.6484375 C-29.77753841 59.07653721 -28.35793127 54.64594312 -26.91113281 50.17431641 C-24.95771793 44.05704348 -23.43898683 37.87562005 -21.9921875 31.62109375 C-21 28 -21 28 -19.49609375 24.54296875 C-17.60193175 20.05731619 -16.68181271 15.55984566 -15.80273438 10.78515625 C-13.89652489 2.07819067 -8.54597686 -1.22085384 0 0 Z " fill="#DCDCDC" transform="translate(142,66)"/>
<path d="M0 0 C-1.44077046 3.36179774 -3.24750021 5.59156268 -6 8 C-6.66 8 -7.32 8 -8 8 C-6.48291727 4.46014029 -4.24676932 0 0 0 Z " fill="#BABABA" transform="translate(212,153)"/>
<path d="M0 0 C0.66 0 1.32 0 2 0 C2.33 1.98 2.66 3.96 3 6 C1.68 5.67 0.36 5.34 -1 5 C-1.33 5.99 -1.66 6.98 -2 8 C-1.47731534 5.23723823 -0.89130413 2.6739124 0 0 Z " fill="#6C6C6C" transform="translate(137,101)"/>
<path d="M0 0 C-1.875 3.875 -1.875 3.875 -3 5 C-3.04092937 7.33297433 -3.04241723 9.66705225 -3 12 C-3.66 11.67 -4.32 11.34 -5 11 C-5.36637589 4.64948454 -5.36637589 4.64948454 -3.625 1.5625 C-2 0 -2 0 0 0 Z " fill="#989898" transform="translate(76,150)"/>
</svg>
